<svg xmlns="http://www.w3.org/2000/svg" width="21.25" height="21.25" viewBox="0 0 21.25 21.25"><g transform="translate(-0.875 -0.875)"><path d="M16.227,19.58a3.352,3.352,0,1,1,3.352-3.352A3.356,3.356,0,0,1,16.227,19.58Zm0-5.455a2.1,2.1,0,1,0,2.1,2.1A2.1,2.1,0,0,0,16.227,14.125Z" transform="translate(-4.727 -4.727)" fill="#031f4d"/><path d="M11.573,22.125A2.446,2.446,0,0,1,9.13,19.682v-.074a.87.87,0,0,0-.573-.794L8.52,18.8a.875.875,0,0,0-.963.173l-.052.052a2.444,2.444,0,1,1-3.456-3.457l.051-.051a.871.871,0,0,0,.173-.963l0-.006a.875.875,0,0,0-.8-.53H3.318a2.443,2.443,0,0,1,0-4.886h.074a.87.87,0,0,0,.794-.573q.007-.019.015-.037a.871.871,0,0,0-.173-.963l-.052-.052A2.444,2.444,0,1,1,7.433,4.049l.051.051a.875.875,0,0,0,.963.173.625.625,0,0,1,.169-.048.875.875,0,0,0,.44-.756V3.318a2.443,2.443,0,0,1,4.886,0V3.4a.874.874,0,0,0,.53.8l.006,0a.875.875,0,0,0,.963-.173l.052-.052a2.444,2.444,0,1,1,3.456,3.457l-.051.051a.871.871,0,0,0-.173.963.625.625,0,0,1,.048.169.875.875,0,0,0,.756.44h.152a2.443,2.443,0,1,1,0,4.886H19.6a.874.874,0,0,0-.8.53l0,.006a.871.871,0,0,0,.173.963l.052.052a2.444,2.444,0,1,1-3.457,3.456l-.051-.051a.875.875,0,0,0-.963-.173l-.006,0a.875.875,0,0,0-.53.8v.152A2.446,2.446,0,0,1,11.573,22.125ZM9.007,17.648a2.113,2.113,0,0,1,1.372,1.938s0,.01,0,.015v.082a1.193,1.193,0,1,0,2.386,0v-.155a2.135,2.135,0,0,1,3.626-1.52l0,0,.055.055a1.194,1.194,0,1,0,1.689-1.689l-.055-.055,0,0A2.137,2.137,0,0,1,19.6,12.693h.084a1.193,1.193,0,1,0,0-2.386h-.155A2.125,2.125,0,0,1,17.58,9.019a.625.625,0,0,1-.048-.192,2.114,2.114,0,0,1,.476-2.218l0,0,.055-.055A1.194,1.194,0,1,0,16.379,4.86l-.055.055,0,0A2.137,2.137,0,0,1,12.693,3.4V3.318a1.193,1.193,0,0,0-2.386,0v.155A2.125,2.125,0,0,1,9.019,5.42a.625.625,0,0,1-.192.048,2.125,2.125,0,0,1-2.218-.476l0,0-.055-.055A1.194,1.194,0,1,0,4.86,6.621l.055.055,0,0a2.115,2.115,0,0,1,.433,2.326,2.113,2.113,0,0,1-1.938,1.372h-.1a1.193,1.193,0,0,0,0,2.386h.155a2.137,2.137,0,0,1,1.52,3.626l0,0-.055.055A1.194,1.194,0,1,0,6.621,18.14l.055-.055,0,0a2.125,2.125,0,0,1,2.326-.433Z" transform="translate(0 0)" fill="#031f4d"/></g></svg>