<svg xmlns="http://www.w3.org/2000/svg" width="151.298" height="140" viewBox="0 0 151.298 140"><g transform="translate(12.097 51.361)"><path d="M1370.933,1286.644V1217.7a8.513,8.513,0,0,1,8.5-8.5h108.2a8.513,8.513,0,0,1,8.5,8.5v68.94Z" transform="translate(-1369.982 -1208.251)" fill="#9bc9ff"/><path d="M1484.407,1206.931a7.573,7.573,0,0,1,7.551,7.551v67.988h-123.3v-67.988a7.573,7.573,0,0,1,7.551-7.551h108.2m0-1.9h-108.2a9.464,9.464,0,0,0-9.454,9.453v69.89h127.1v-69.89a9.464,9.464,0,0,0-9.454-9.453Z" transform="translate(-1366.757 -1205.029)" fill="#1e81ce"/></g><g transform="translate(21.691 59.218)"><path d="M4,0h98.088a4,4,0,0,1,4,4v53.23a4,4,0,0,1-4,4H4a4,4,0,0,1-4-4V4A4,4,0,0,1,4,0Z" transform="translate(0.911 0.911)" fill="#f7f9fb"/><path d="M1514.971,1241.348v59.411H1410.7v-59.411h104.27m0-1.823H1410.7a1.823,1.823,0,0,0-1.822,1.823v59.411a1.823,1.823,0,0,0,1.822,1.823h104.27a1.824,1.824,0,0,0,1.823-1.823v-59.411a1.823,1.823,0,0,0-1.823-1.823Z" transform="translate(-1408.878 -1239.525)" fill="#1e81ce"/></g><g transform="translate(0 126.979)"><path d="M1406.2,1552.208c-.828,0-82.921-.034-84.105-.579-3.471-1.6-4.354-8.792-4.443-9.607a.913.913,0,0,1,.906-1.011h147.652a.913.913,0,0,1,.906,1.011c-.089.815-.97,8.008-4.443,9.607C1462.332,1551.787,1461.418,1552.208,1406.2,1552.208Z" transform="translate(-1316.738 -1540.099)" fill="#f2f2f2"/><path d="M1463.124,1538.834s-.814,7.449-3.918,8.879c-.784.361-26.747.5-56.091.5-38.647,0-83.156-.235-83.724-.5-3.1-1.429-3.918-8.879-3.918-8.879h147.652m0-1.823H1315.472a1.822,1.822,0,0,0-1.812,2.021c.155,1.416,1.122,8.565,4.968,10.335.5.231.773.357,28.334.514,16.482.094,37.473.15,56.152.15,55.415,0,56.281-.4,56.854-.664,3.847-1.771,4.813-8.921,4.968-10.335a1.823,1.823,0,0,0-1.812-2.021Z" transform="translate(-1313.649 -1537.011)" fill="#1e81ce"/></g><g transform="translate(59.593 129.821)"><path d="M1606.536,1551.416c-.395.182-30.187.1-30.406,0-.675-.31-.852-1.93-.852-1.93h32.111S1607.211,1551.106,1606.536,1551.416Z" transform="translate(-1575.278 -1549.486)" fill="#1e81ce"/></g><g transform="translate(64.254 36.479)"><g transform="translate(1.596 39.345)"><path d="M1607.228,1360.511a.761.761,0,0,1-.761-.754l-.384-43.215a.762.762,0,0,1,.761-.767c.019,0,22.044,1.6,22.044,1.6a.761.761,0,0,1,.705.73l1.614,41.615a.761.761,0,0,1-.76.79Z" transform="translate(-1605.323 -1315.012)" fill="#ffc545"/></g><path d="M1617.887,1185.335c2.89-1.583,5.89-4.913,7.745-7.9,2.017-3.242,6.722-10.676,6.751-15.14.02-3.33-.673-15.145-1.709-17.991-2.793-7.7-21.755-5.005-24.51,2.515-1.016,2.773-10.1,19.291-10.421,26.372-.16,3.524,2.778,9.368,7.488,11.96" transform="translate(-1595.737 -1139.695)" fill="#ffc545"/></g><g transform="translate(31.079 0)"><g transform="translate(0)"><path d="M1474.421,1061.208l-20.911-42.887a.76.76,0,0,1,.35-1.017l70.424-34.339a.748.748,0,0,1,.334-.077.757.757,0,0,1,.684.427l20.911,42.888a.76.76,0,0,1-.35,1.017l-70.424,34.338C1475.332,1061.611,1474.553,1061.478,1474.421,1061.208Z" transform="translate(-1452.671 -982.126)" fill="#f7f9fb"/><path d="M1522.038,981.066l20.911,42.888-70.424,34.338-20.912-42.887,70.424-34.339m0-1.522a1.53,1.53,0,0,0-.667.154l-70.424,34.339a1.523,1.523,0,0,0-.7,2.036l20.912,42.886a1.522,1.522,0,0,0,2.035.7l70.424-34.338a1.522,1.522,0,0,0,.7-2.036L1523.406,980.4a1.522,1.522,0,0,0-1.368-.855Z" transform="translate(-1450.092 -979.543)" fill="#1e81ce"/></g></g><g transform="translate(86.37 46.402)"><g transform="translate(0)"><path d="M1701.1,1210.179c4.489-5.034,5.964-9.192,5.983-12.656.009-1.871-6.654-11.957-8.173-13.488-2.5-2.108-4.17.615-5.091,1.745-3.609,4.422,3.912,13.884,3.1,19.868" transform="translate(-1692.835 -1183.258)" fill="#ffc545"/></g></g><g transform="translate(64.28 86.125)"><path d="M.761,0H25.7a.761.761,0,0,1,.761.761V33.675a.761.761,0,0,1-.761.761H.761A.761.761,0,0,1,0,33.675V.761A.761.761,0,0,1,.761,0Z" transform="translate(0.761 0.762)" fill="#fff"/><path d="M1622.309,1359.175v32.915h-24.934v-32.915h24.934m0-1.522h-24.934a1.522,1.522,0,0,0-1.522,1.522v32.915a1.522,1.522,0,0,0,1.522,1.522h24.934a1.522,1.522,0,0,0,1.522-1.522v-32.915a1.522,1.522,0,0,0-1.522-1.522Z" transform="translate(-1595.852 -1357.653)" fill="#1e81ce"/></g><g transform="translate(62.031 90.691)"><path d="M.761,0h29.43a.761.761,0,0,1,.761.761V29.109a.761.761,0,0,1-.761.761H.761A.761.761,0,0,1,0,29.109V.761A.761.761,0,0,1,.761,0Z" transform="translate(0.761 0.762)" fill="#9bc9ff"/><path d="M1616.933,1379.22v28.349H1587.5V1379.22h29.43m0-1.522H1587.5a1.522,1.522,0,0,0-1.522,1.522v28.349a1.522,1.522,0,0,0,1.522,1.522h29.43a1.522,1.522,0,0,0,1.522-1.522V1379.22a1.522,1.522,0,0,0-1.522-1.522Z" transform="translate(-1585.981 -1377.698)" fill="#1e81ce"/></g><g transform="translate(52.51 26.395)"><path d="M13.9,32.761-.909.416.909-.416,15.715,31.928Z" transform="matrix(1, -0.017, 0.017, 1, 0, 7.329)" fill="#9bc9ff"/><path d="M13.9,32.761-.909.416.909-.416,15.715,31.928Z" transform="matrix(1, -0.017, 0.017, 1, 4.515, 4.972)" fill="#9bc9ff"/><path d="M13.9,32.761-.909.416.909-.416,15.715,31.928Z" transform="matrix(1, -0.017, 0.017, 1, 9.03, 2.615)" fill="#9bc9ff"/><path d="M13.9,32.761-.909.416.909-.416,15.715,31.928Z" transform="matrix(1, -0.017, 0.017, 1, 13.545, 0.258)" fill="#9bc9ff"/></g><g transform="translate(84.399 10.45)"><path d="M13.9,32.761-.909.416.909-.416,15.715,31.928Z" transform="matrix(1, -0.017, 0.017, 1, 0, 7.329)" fill="#9bc9ff"/><path d="M13.9,32.761-.909.416.909-.416,15.715,31.928Z" transform="matrix(1, -0.017, 0.017, 1, 4.515, 4.972)" fill="#9bc9ff"/><path d="M13.9,32.761-.909.416.909-.416,15.715,31.928Z" transform="matrix(1, -0.017, 0.017, 1, 9.03, 2.615)" fill="#9bc9ff"/><path d="M13.9,32.761-.909.416.909-.416,15.715,31.928Z" transform="matrix(1, -0.017, 0.017, 1, 13.545, 0.258)" fill="#9bc9ff"/></g></svg>