<svg xmlns="http://www.w3.org/2000/svg" width="20.1" height="18.2" viewBox="0 0 20.1 18.2"><g transform="translate(-299.45 -53.45)"><g transform="translate(-26 -79)"><g transform="translate(326 133)"><path d="M4.9,9.95H20.1a2.453,2.453,0,0,1,2.45,2.45v9.5a2.453,2.453,0,0,1-2.45,2.45H4.9A2.453,2.453,0,0,1,2.45,21.9V12.4A2.453,2.453,0,0,1,4.9,9.95Zm15.2,13.3a1.352,1.352,0,0,0,1.35-1.35V12.4a1.352,1.352,0,0,0-1.35-1.35H4.9A1.352,1.352,0,0,0,3.55,12.4v9.5A1.352,1.352,0,0,0,4.9,23.25Z" transform="translate(-3 -6.7)" fill="#031f4d"/><path d="M19.6,22.15a.55.55,0,0,1-.55-.55V6.4A1.352,1.352,0,0,0,17.7,5.05H13.9A1.352,1.352,0,0,0,12.55,6.4V21.6a.55.55,0,1,1-1.1,0V6.4A2.453,2.453,0,0,1,13.9,3.95h3.8A2.453,2.453,0,0,1,20.15,6.4V21.6A.55.55,0,0,1,19.6,22.15Z" transform="translate(-6.3 -4.5)" fill="#031f4d"/></g></g></g></svg>