<svg xmlns="http://www.w3.org/2000/svg" width="16" height="16.004" viewBox="0 0 16 16.004"><path d="M16,3.793V16.711a1.525,1.525,0,0,1-1.543,1.543H1.543A1.531,1.531,0,0,1,0,16.707V3.793A1.525,1.525,0,0,1,1.543,2.25H14.461A1.525,1.525,0,0,1,16,3.793ZM14.668,16.707V3.793a.212.212,0,0,0-.207-.207h-.332L10.189,6.25,8,4.468,5.814,6.25,1.875,3.582H1.543a.212.212,0,0,0-.207.207V16.707a.212.212,0,0,0,.207.207H14.461A.207.207,0,0,0,14.668,16.707ZM5.364,7.75V9.071H2.739V7.75Zm0,2.657v1.332H2.739V10.407Zm.4-5.261L7.689,3.586H3.457l2.3,1.561Zm7.5,2.6V9.071h-7V7.75Zm0,2.657v1.332h-7V10.407ZM10.239,5.146l2.3-1.561H8.314l1.925,1.561Zm3.021,7.925V14.4H9.711V13.071h3.55Z" transform="translate(0 -2.25)" fill="#125fcd"/></svg>