<svg xmlns="http://www.w3.org/2000/svg" width="120" height="140.42" viewBox="0 0 120 140.42"><g transform="translate(-746 -556.753)"><g transform="translate(850 655.222)"><g transform="translate(0 1.928)"><circle cx="6.843" cy="6.843" r="6.843" transform="translate(0.233 13.774) rotate(-81.633)" fill="#fff"/><path d="M421.1,185.952a8,8,0,1,1,8-8A8.008,8.008,0,0,1,421.1,185.952Zm0-13.685a5.686,5.686,0,1,0,5.686,5.686A5.692,5.692,0,0,0,421.1,172.266Z" transform="translate(-413.097 -169.953)" fill="#1e81ce"/></g><path d="M0,0H2.313V26.34H0Z" transform="translate(6.843 15.591)" fill="#1e81ce"/><path d="M0,0H9.639V2.313H0Z" transform="translate(3.18 39.622)" fill="#1e81ce"/><path d="M0,0H9.639V2.313H0Z" transform="translate(3.18 15.614)" fill="#1e81ce"/><rect width="2.313" height="2.442" transform="translate(6.843 0)" fill="#1e81ce"/></g><path d="M28.978,0A28.978,28.978,0,1,1,0,28.978,28.978,28.978,0,0,1,28.978,0Z" transform="translate(802.702 596.221)" fill="#ffc545"/><g transform="translate(775.077 607.965)"><rect width="52.117" height="86.894" transform="translate(1.157 1.156)" fill="#9bc9ff"/><path d="M370.363,195.375h-54.43V106.167h54.43Zm-52.117-2.313h49.8V108.48h-49.8Z" transform="translate(-315.933 -106.167)" fill="#1e81ce"/></g><g transform="translate(780.445 587.886)"><rect width="41.382" height="20.078" transform="translate(1.156 1.157)" fill="#fff"/><path d="M366.589,102.52h-43.7V80.128h43.7Zm-41.382-2.313h39.068V82.441H325.207Z" transform="translate(-322.894 -80.128)" fill="#1e81ce"/></g><g transform="translate(786.614 568.609)"><rect width="29.045" height="19.277" transform="translate(1.156 1.157)" fill="#fff"/><path d="M362.251,76.719H330.894V55.128h31.357Zm-29.044-2.313h26.731V57.441H333.207Z" transform="translate(-330.894 -55.128)" fill="#1e81ce"/></g><g transform="translate(781.537 615.483)"><g transform="translate(0 0)"><rect width="7.968" height="3.601" transform="translate(0 0)" fill="#fff"/><g transform="translate(2.827)"><line y2="3.601" transform="translate(1.157 0)" fill="#fff"/><rect width="2.313" height="3.601" fill="#fff"/></g></g><g transform="translate(11.181 0)"><rect width="7.968" height="3.601" transform="translate(0 0)" fill="#fff"/><g transform="translate(2.827)"><line y2="3.601" transform="translate(1.157 0)" fill="#fff"/><rect width="2.313" height="3.601" fill="#fff"/></g></g><g transform="translate(22.362 0)"><rect width="7.968" height="3.601" transform="translate(0 0)" fill="#fff"/><g transform="translate(2.827)"><line y2="3.601" transform="translate(1.157 0)" fill="#fff"/><rect width="2.313" height="3.601" fill="#fff"/></g></g><g transform="translate(33.543 0)"><rect width="7.968" height="3.601" transform="translate(0 0)" fill="#fff"/><g transform="translate(2.827)"><line y2="3.601" transform="translate(1.157 0)" fill="#fff"/><rect width="2.313" height="3.601" fill="#fff"/></g></g></g><g transform="translate(781.537 623.128)"><g transform="translate(0 0)"><rect width="7.968" height="3.601" transform="translate(0 0)" fill="#fff"/><g transform="translate(2.827)"><line y2="3.601" transform="translate(1.157 0)" fill="#fff"/><rect width="2.313" height="3.601" fill="#fff"/></g></g><g transform="translate(11.181 0)"><rect width="7.968" height="3.601" transform="translate(0 0)" fill="#fff"/><g transform="translate(2.827)"><line y2="3.601" transform="translate(1.157 0)" fill="#fff"/><rect width="2.313" height="3.601" fill="#fff"/></g></g><g transform="translate(22.362 0)"><rect width="7.968" height="3.601" transform="translate(0 0)" fill="#fff"/><g transform="translate(2.827)"><line y2="3.601" transform="translate(1.157 0)" fill="#fff"/><rect width="2.313" height="3.601" fill="#fff"/></g></g><g transform="translate(33.543 0)"><rect width="7.968" height="3.601" transform="translate(0 0)" fill="#fff"/><g transform="translate(2.827)"><line y2="3.601" transform="translate(1.157 0)" fill="#fff"/><rect width="2.313" height="3.601" fill="#fff"/></g></g></g><g transform="translate(787.256 593.635)"><g transform="translate(0 0)"><rect width="7.968" height="3.601" fill="#1e81ce"/><g transform="translate(2.828)"><line y2="3.601" transform="translate(1.156)" fill="#fff"/><rect width="2.313" height="3.601" fill="#1e81ce"/></g></g><g transform="translate(11.181 0)"><rect width="7.968" height="3.601" fill="#1e81ce"/><g transform="translate(2.828)"><line y2="3.601" transform="translate(1.156)" fill="#fff"/><rect width="2.313" height="3.601" fill="#1e81ce"/></g></g><g transform="translate(22.362 0)"><rect width="7.968" height="3.601" fill="#1e81ce"/><g transform="translate(2.828)"><line y2="3.601" transform="translate(1.156)" fill="#fff"/><rect width="2.313" height="3.601" fill="#1e81ce"/></g></g></g><g transform="translate(787.256 601.281)"><g transform="translate(0 0)"><rect width="7.968" height="3.601" transform="translate(0 0)" fill="#1e81ce"/><g transform="translate(2.828)"><line y2="3.601" transform="translate(1.156 0)" fill="#fff"/><rect width="2.313" height="3.601" fill="#1e81ce"/></g></g><g transform="translate(11.181 0)"><rect width="7.968" height="3.601" transform="translate(0 0)" fill="#1e81ce"/><g transform="translate(2.828)"><line y2="3.601" transform="translate(1.156 0)" fill="#fff"/><rect width="2.313" height="3.601" fill="#1e81ce"/></g></g><g transform="translate(22.362 0)"><rect width="7.968" height="3.601" transform="translate(0 0)" fill="#1e81ce"/><g transform="translate(2.828)"><line y2="3.601" transform="translate(1.156 0)" fill="#fff"/><rect width="2.313" height="3.601" fill="#1e81ce"/></g></g></g><g transform="translate(792.718 573.782)"><g transform="translate(0 0)"><rect width="7.968" height="3.601" transform="translate(0 0)" fill="#1e81ce"/><g transform="translate(2.827)"><line y2="3.601" transform="translate(1.157 0)" fill="#fff"/><rect width="2.313" height="3.601" fill="#1e81ce"/></g></g><g transform="translate(11.181 0)"><rect width="7.968" height="3.601" transform="translate(0 0)" fill="#1e81ce"/><g transform="translate(2.827)"><line y2="3.601" transform="translate(1.157 0)" fill="#fff"/><rect width="2.313" height="3.601" fill="#1e81ce"/></g></g></g><g transform="translate(792.718 581.428)"><g transform="translate(0 0)"><rect width="7.968" height="3.601" fill="#1e81ce"/><g transform="translate(2.827)"><line y2="3.601" transform="translate(1.157)" fill="#fff"/><rect width="2.313" height="3.601" transform="translate(0 0)" fill="#1e81ce"/></g></g><g transform="translate(11.181 0)"><rect width="7.968" height="3.601" fill="#1e81ce"/><g transform="translate(2.827)"><line y2="3.601" transform="translate(1.157)" fill="#fff"/><rect width="2.313" height="3.601" transform="translate(0 0)" fill="#1e81ce"/></g></g></g><g transform="translate(781.537 630.774)"><g transform="translate(0 0)"><rect width="7.968" height="3.601" fill="#fff"/><g transform="translate(2.827)"><line y2="3.601" transform="translate(1.157)" fill="#fff"/><rect width="2.313" height="3.601" transform="translate(0 0)" fill="#fff"/></g></g><g transform="translate(11.181 0)"><rect width="7.968" height="3.601" fill="#fff"/><g transform="translate(2.827)"><line y2="3.601" transform="translate(1.157)" fill="#fff"/><rect width="2.313" height="3.601" transform="translate(0 0)" fill="#fff"/></g></g><g transform="translate(22.362 0)"><rect width="7.968" height="3.601" fill="#fff"/><g transform="translate(2.827)"><line y2="3.601" transform="translate(1.157)" fill="#fff"/><rect width="2.313" height="3.601" transform="translate(0 0)" fill="#fff"/></g></g><g transform="translate(33.543 0)"><rect width="7.968" height="3.601" fill="#fff"/><g transform="translate(2.827)"><line y2="3.601" transform="translate(1.157)" fill="#fff"/><rect width="2.313" height="3.601" transform="translate(0 0)" fill="#fff"/></g></g></g><g transform="translate(781.537 638.419)"><g transform="translate(0 0)"><rect width="7.968" height="3.601" fill="#fff"/><g transform="translate(2.827)"><line y2="3.601" transform="translate(1.157)" fill="#fff"/><rect width="2.313" height="3.601" transform="translate(0 0)" fill="#fff"/></g></g><g transform="translate(11.181 0)"><rect width="7.968" height="3.601" fill="#fff"/><g transform="translate(2.827)"><line y2="3.601" transform="translate(1.157)" fill="#fff"/><rect width="2.313" height="3.601" transform="translate(0 0)" fill="#fff"/></g></g><g transform="translate(22.362 0)"><rect width="7.968" height="3.601" fill="#fff"/><g transform="translate(2.827)"><line y2="3.601" transform="translate(1.157)" fill="#fff"/><rect width="2.313" height="3.601" transform="translate(0 0)" fill="#fff"/></g></g><g transform="translate(33.543 0)"><rect width="7.968" height="3.601" fill="#fff"/><g transform="translate(2.827)"><line y2="3.601" transform="translate(1.157)" fill="#fff"/><rect width="2.313" height="3.601" transform="translate(0 0)" fill="#fff"/></g></g></g><g transform="translate(781.537 646.065)"><g transform="translate(0 0)"><rect width="7.968" height="3.601" fill="#fff"/><g transform="translate(2.827)"><line y2="3.601" transform="translate(1.157)" fill="#fff"/><rect width="2.313" height="3.601" fill="#fff"/></g></g><g transform="translate(11.181 0)"><rect width="7.968" height="3.601" fill="#fff"/><g transform="translate(2.827)"><line y2="3.601" transform="translate(1.157)" fill="#fff"/><rect width="2.313" height="3.601" fill="#fff"/></g></g><g transform="translate(22.362 0)"><rect width="7.968" height="3.601" fill="#fff"/><g transform="translate(2.827)"><line y2="3.601" transform="translate(1.157)" fill="#fff"/><rect width="2.313" height="3.601" fill="#fff"/></g></g><g transform="translate(33.543 0)"><rect width="7.968" height="3.601" fill="#fff"/><g transform="translate(2.827)"><line y2="3.601" transform="translate(1.157)" fill="#fff"/><rect width="2.313" height="3.601" fill="#fff"/></g></g></g><g transform="translate(781.537 653.71)"><g transform="translate(0 0)"><rect width="7.968" height="3.601" fill="#fff"/><g transform="translate(2.827)"><line y2="3.601" transform="translate(1.157)" fill="#fff"/><rect width="2.313" height="3.601" fill="#fff"/></g></g><g transform="translate(11.181 0)"><rect width="7.968" height="3.601" fill="#fff"/><g transform="translate(2.827)"><line y2="3.601" transform="translate(1.157)" fill="#fff"/><rect width="2.313" height="3.601" fill="#fff"/></g></g><g transform="translate(22.362 0)"><rect width="7.968" height="3.601" fill="#fff"/><g transform="translate(2.827)"><line y2="3.601" transform="translate(1.157)" fill="#fff"/><rect width="2.313" height="3.601" fill="#fff"/></g></g><g transform="translate(33.543 0)"><rect width="7.968" height="3.601" fill="#fff"/><g transform="translate(2.827)"><line y2="3.601" transform="translate(1.157)" fill="#fff"/><rect width="2.313" height="3.601" fill="#fff"/></g></g></g><g transform="translate(781.537 661.356)"><g transform="translate(0 0)"><rect width="7.968" height="3.601" transform="translate(0 0)" fill="#fff"/><g transform="translate(2.827)"><line y2="3.601" transform="translate(1.157 0)" fill="#fff"/><rect width="2.313" height="3.601" fill="#fff"/></g></g><g transform="translate(11.181 0)"><rect width="7.968" height="3.601" transform="translate(0 0)" fill="#fff"/><g transform="translate(2.827)"><line y2="3.601" transform="translate(1.157 0)" fill="#fff"/><rect width="2.313" height="3.601" fill="#fff"/></g></g><g transform="translate(22.362 0)"><rect width="7.968" height="3.601" transform="translate(0 0)" fill="#fff"/><g transform="translate(2.827)"><line y2="3.601" transform="translate(1.157 0)" fill="#fff"/><rect width="2.313" height="3.601" fill="#fff"/></g></g><g transform="translate(33.543 0)"><rect width="7.968" height="3.601" transform="translate(0 0)" fill="#fff"/><g transform="translate(2.827)"><line y2="3.601" transform="translate(1.157 0)" fill="#fff"/><rect width="2.313" height="3.601" fill="#fff"/></g></g></g><g transform="translate(781.537 669.001)"><g transform="translate(0 0)"><rect width="7.968" height="3.601" transform="translate(0 0)" fill="#fff"/><g transform="translate(2.827)"><line y2="3.601" transform="translate(1.157 0)" fill="#fff"/><rect width="2.313" height="3.601" fill="#fff"/></g></g><g transform="translate(11.181 0)"><rect width="7.968" height="3.601" transform="translate(0 0)" fill="#fff"/><g transform="translate(2.827)"><line y2="3.601" transform="translate(1.157 0)" fill="#fff"/><rect width="2.313" height="3.601" fill="#fff"/></g></g><g transform="translate(22.362 0)"><rect width="7.968" height="3.601" transform="translate(0 0)" fill="#fff"/><g transform="translate(2.827)"><line y2="3.601" transform="translate(1.157 0)" fill="#fff"/><rect width="2.313" height="3.601" fill="#fff"/></g></g><g transform="translate(33.543 0)"><rect width="7.968" height="3.601" transform="translate(0 0)" fill="#fff"/><g transform="translate(2.827)"><line y2="3.601" transform="translate(1.157 0)" fill="#fff"/><rect width="2.313" height="3.601" fill="#fff"/></g></g></g><g transform="translate(781.537 676.647)"><g transform="translate(0 0)"><rect width="7.968" height="3.601" fill="#fff"/><g transform="translate(2.827)"><line y2="3.601" transform="translate(1.157)" fill="#fff"/><rect width="2.313" height="3.601" transform="translate(0 0)" fill="#fff"/></g></g><g transform="translate(11.181 0)"><rect width="7.968" height="3.601" fill="#fff"/><g transform="translate(2.827)"><line y2="3.601" transform="translate(1.157)" fill="#fff"/><rect width="2.313" height="3.601" transform="translate(0 0)" fill="#fff"/></g></g><g transform="translate(22.362 0)"><rect width="7.968" height="3.601" fill="#fff"/><g transform="translate(2.827)"><line y2="3.601" transform="translate(1.157)" fill="#fff"/><rect width="2.313" height="3.601" transform="translate(0 0)" fill="#fff"/></g></g><g transform="translate(33.543 0)"><rect width="7.968" height="3.601" fill="#fff"/><g transform="translate(2.827)"><line y2="3.601" transform="translate(1.157)" fill="#fff"/><rect width="2.313" height="3.601" transform="translate(0 0)" fill="#fff"/></g></g></g><g transform="translate(781.537 684.292)"><g transform="translate(0 0)"><rect width="7.968" height="3.601" fill="#f7f9fb"/><g transform="translate(2.827)"><line y2="3.601" transform="translate(1.157)" fill="#fff"/><rect width="2.313" height="3.601" transform="translate(0 0)" fill="#f7f9fb"/></g></g><g transform="translate(11.181 0)"><rect width="7.968" height="3.601" fill="#f7f9fb"/><g transform="translate(2.827)"><line y2="3.601" transform="translate(1.157)" fill="#fff"/><rect width="2.313" height="3.601" transform="translate(0 0)" fill="#f7f9fb"/></g></g><g transform="translate(22.362 0)"><rect width="7.968" height="3.601" fill="#f7f9fb"/><g transform="translate(2.827)"><line y2="3.601" transform="translate(1.157)" fill="#fff"/><rect width="2.313" height="3.601" transform="translate(0 0)" fill="#f7f9fb"/></g></g><g transform="translate(33.543 0)"><rect width="7.968" height="10.551" fill="#f7f9fb"/><g transform="translate(2.827)"><line y2="10.551" transform="translate(1.157)" fill="#fff"/><rect width="2.313" height="10.551" transform="translate(0 0)" fill="#f7f9fb"/></g></g></g><g transform="translate(841.016 631.226)"><path d="M425.476,146.958a3.418,3.418,0,0,0-4-2.991,6.878,6.878,0,0,0-12.909-2.488,5.067,5.067,0,0,0-5.618,5.041c0,.148.01.293.022.438Z" transform="translate(-401.789 -136.677)" fill="#fff"/><path d="M426.43,147.772H401.561l-.089-1.06c-.015-.177-.026-.354-.026-.534a6.235,6.235,0,0,1,6.136-6.227,8.036,8.036,0,0,1,14.51,2.478,4.591,4.591,0,0,1,4.19,4.054Zm-22.6-2.313h19.566a2.328,2.328,0,0,0-2.064-.695l-1.215.211-.133-1.226a5.721,5.721,0,0,0-10.738-2.067l-.369.69-.777-.085a3.8,3.8,0,0,0-.422-.024A3.923,3.923,0,0,0,403.826,145.458Z" transform="translate(-401.446 -136.334)" fill="#1e81ce"/></g><g transform="translate(761.835 640.736)"><path d="M322.789,159.291a3.439,3.439,0,0,0-3.416-3.044,3.5,3.5,0,0,0-.587.053,6.878,6.878,0,0,0-12.909-2.487,5.06,5.06,0,0,0-5.618,5.041c0,.147.01.293.022.437Z" transform="translate(-299.103 -149.01)" fill="#fff"/><path d="M323.742,160.1H298.88l-.093-1.055c-.016-.178-.026-.357-.026-.539a6.235,6.235,0,0,1,6.135-6.227,8.036,8.036,0,0,1,14.51,2.478,4.591,4.591,0,0,1,4.19,4.054Zm-22.6-2.313h19.566a2.344,2.344,0,0,0-2.067-.694l-1.213.207-.132-1.224a5.722,5.722,0,0,0-10.739-2.067l-.367.689-.776-.083a4.033,4.033,0,0,0-.423-.024A3.921,3.921,0,0,0,301.14,157.791Z" transform="translate(-298.76 -148.667)" fill="#1e81ce"/></g><g transform="translate(746 680.75)"><rect width="29.078" height="14.108" transform="translate(1.156 1.157)" fill="#fff"/><path d="M309.615,216.981H278.224V200.559h31.391Zm-29.077-2.313H307.3v-11.8H280.537Z" transform="translate(-278.224 -200.559)" fill="#1e81ce"/></g><g transform="translate(746 675.877)"><rect width="29.078" height="4.873" transform="translate(1.156 1.157)" fill="#fff"/><path d="M309.615,201.426H278.224v-7.187h31.391Zm-29.077-2.313H307.3v-2.56H280.537Z" transform="translate(-278.224 -194.239)" fill="#1e81ce"/></g><rect width="9.977" height="5.351" transform="translate(750.384 686.286)" fill="#1e81ce"/><rect width="9.679" height="5.351" transform="translate(763.156 686.286)" fill="#1e81ce"/><g transform="translate(827.194 680.75)"><rect width="16.388" height="14.108" transform="translate(1.156 1.157)" fill="#fff"/><path d="M402.222,216.981h-18.7V200.559h18.7Zm-16.387-2.313h14.074v-11.8H385.834Z" transform="translate(-383.521 -200.559)" fill="#1e81ce"/></g><g transform="translate(827.194 675.877)"><rect width="16.388" height="4.873" transform="translate(1.156 1.157)" fill="#fff"/><path d="M402.222,201.426h-18.7v-7.187h18.7Zm-16.387-2.313h14.074v-2.56H385.834Z" transform="translate(-383.521 -194.239)" fill="#1e81ce"/></g><rect width="9.977" height="5.351" transform="translate(831.579 686.286)" fill="#1e81ce"/><path d="M0,0H2.313V13.012H0Z" transform="translate(801.135 556.753)" fill="#1e81ce"/></g></svg>